<svg width="360" height="120" viewBox="0 0 360 120" fill="none" xmlns="http://www.w3.org/2000/svg">
<g clip-path="url(#clip0_151_2992)">
<path fill-rule="evenodd" clip-rule="evenodd" d="M4.96552 20C2.22314 20 0 22.2386 0 25C0 27.7614 2.22314 30 4.96552 30H72.5308C72.1803 32.459 72 34.9618 72 37.5C72 72.0178 105.347 100 146.483 100C178.173 100 205.24 83.3932 216 59.985C226.76 83.3932 253.827 100 285.517 100C326.653 100 360 72.0178 360 37.5C360 31.4253 358.967 25.553 357.041 20H356.276L74.4828 20L4.96552 20ZM282.267 30C285.119 44.8821 300.495 56.25 319.034 56.25C331.781 56.25 343.031 50.8768 349.745 42.6825C346.581 67.9573 320.563 90 285.517 90C248.094 90 220.966 64.8652 220.966 37.5C220.966 34.975 221.196 32.469 221.645 30H282.267ZM183.724 56.25C165.184 56.25 149.809 44.8821 146.957 30L82.6107 30C82.162 32.469 81.931 34.975 81.931 37.5C81.931 64.8652 109.06 90 146.483 90C179.403 90 204.358 70.5495 209.886 47.2405C203.16 52.8113 193.921 56.25 183.724 56.25Z" fill="#1C1C1C"/>
<path d="M146.957 30C149.809 44.8821 165.184 56.25 183.724 56.25C193.921 56.25 203.16 52.8113 209.886 47.2405C204.358 70.5495 179.403 90 146.483 90C109.06 90 81.931 64.8652 81.931 37.5C81.931 34.975 82.162 32.469 82.6107 30L146.957 30Z" fill="white"/>
<path d="M319.034 56.25C300.495 56.25 285.119 44.8821 282.267 30H221.645C221.196 32.469 220.966 34.975 220.966 37.5C220.966 64.8652 248.094 90 285.517 90C320.563 90 346.581 67.9573 349.745 42.6825C343.031 50.8768 331.781 56.25 319.034 56.25Z" fill="white"/>
</g>
<defs>
<clipPath id="clip0_151_2992">
<rect width="360" height="120" fill="white"/>
</clipPath>
</defs>
</svg>
